<svg viewBox="0 0 24 24" class="rn-1qtguxu rn-4qtqp9 rn-yyyyoo rn-50lct3 rn-dnmrzs rn-bnwqim rn-m6rgpd rn-lrvibr"><g><path d="M23.25 3.184h-2.425V.76a.75.75 0 1 0-1.5 0v2.424H16.9a.75.75 0 0 0 0 1.5h2.425V7.11a.75.75 0 0 0 1.5 0V4.683h2.425a.75.75 0 0 0 0-1.5zm-3.175 6.876a.75.75 0 0 0-.75.75v8.08c0 .413-.337.75-.75.75H4.095a.752.752 0 0 1-.75-.75V8.23l6.778 4.518a2.179 2.179 0 0 0 2.425 0l4.53-3.013a.729.729 0 1 0-.808-1.215l-4.53 3.015a.73.73 0 0 1-.808 0l-7.586-5.06v-1.04a.75.75 0 0 1 .75-.75h9.094a.75.75 0 0 0 0-1.5H4.096c-1.24 0-2.25 1.01-2.25 2.25V18.89c0 1.24 1.01 2.25 2.25 2.25h14.48c1.24 0 2.25-1.01 2.25-2.25v-8.08a.75.75 0 0 0-.75-.75z"></path></g></svg>
